<svg width="207" height="44" viewBox="0 0 207 44" fill="none" xmlns="http://www.w3.org/2000/svg">
<g clip-path="url(#clip0_22605_2584)">
<rect width="207" height="44" rx="12" fill="#F3F5F9"/>
<rect x="16" y="10" width="24" height="24" rx="12" fill="#004DE5"/>
<g clip-path="url(#clip1_22605_2584)">
<path fill-rule="evenodd" clip-rule="evenodd" d="M23 24.7142V16.077C23 15.7913 23.1139 15.5174 23.3166 15.3154C23.5194 15.1135 23.7944 15 24.0811 15H31.9189C32.2056 15 32.4806 15.1135 32.6834 15.3154C32.8861 15.5174 33 15.7913 33 16.077V24.7142C32.9999 24.8755 32.9634 25.0348 32.8932 25.1802C32.8231 25.3256 32.721 25.4534 32.5946 25.5542L28.5068 28.8228C28.3629 28.9375 28.1842 29 28 29C27.8158 29 27.6371 28.9375 27.4932 28.8228L23.4054 25.5542C23.279 25.4534 23.1769 25.3256 23.1068 25.1802C23.0366 25.0348 23.0001 24.8755 23 24.7142ZM31.3784 17.6924V19.8464C31.3784 20.1316 31.2648 20.4053 31.0625 20.6072C30.8602 20.8091 30.5857 20.9228 30.2993 20.9233C30.586 20.9233 30.861 21.0368 31.0638 21.2388C31.2665 21.4407 31.3804 21.7147 31.3804 22.0003V23.9422C31.3803 24.1035 31.3438 24.2628 31.2737 24.4082C31.2035 24.5535 31.1014 24.6814 30.975 24.7822L29.302 26.1203C29.2822 26.1362 29.2582 26.1461 29.2329 26.149C29.2076 26.1519 29.182 26.1476 29.1591 26.1366C29.1361 26.1256 29.1168 26.1084 29.1032 26.087C29.0897 26.0655 29.0825 26.0407 29.0824 26.0153V22.2695C29.0824 22.0553 28.997 21.8499 28.845 21.6984C28.6929 21.5469 28.4867 21.4618 28.2716 21.4618H27.0554C27.0196 21.4618 26.9852 21.476 26.9599 21.5012C26.9345 21.5265 26.9203 21.5607 26.9203 21.5964V26.0153C26.9204 26.0408 26.9132 26.0658 26.8996 26.0874C26.886 26.1089 26.8665 26.1262 26.8435 26.1372C26.8204 26.1482 26.7947 26.1525 26.7693 26.1495C26.7439 26.1465 26.7199 26.1364 26.7 26.1203L25.027 24.7822C24.9006 24.6814 24.7985 24.5535 24.7284 24.4082C24.6582 24.2628 24.6217 24.1035 24.6216 23.9422V17.6924C24.6216 17.4068 24.7355 17.1329 24.9383 16.9309C25.141 16.7289 25.416 16.6155 25.7027 16.6155H30.2973C30.584 16.6155 30.859 16.7289 31.0617 16.9309C31.2645 17.1329 31.3784 17.4068 31.3784 17.6924ZM27.0541 20.3848H28.2703C28.4853 20.3848 28.6915 20.2997 28.8436 20.1483C28.9957 19.9968 29.0811 19.7913 29.0811 19.5771V17.8271C29.0811 17.7914 29.0668 17.7571 29.0415 17.7319C29.0162 17.7066 28.9818 17.6924 28.946 17.6924H27.0541C27.0182 17.6924 26.9838 17.7066 26.9585 17.7319C26.9332 17.7571 26.9189 17.7914 26.9189 17.8271V20.2502C26.9189 20.2859 26.9332 20.3202 26.9585 20.3454C26.9838 20.3707 27.0182 20.3848 27.0541 20.3848Z" fill="#F5F8FC"/>
</g>
<path d="M53.168 16.28C54.1173 16.28 54.9387 16.4613 55.632 16.824C56.3253 17.176 56.912 17.6987 57.392 18.392L56.24 19.496C55.8347 18.8773 55.376 18.4347 54.864 18.168C54.3627 17.8907 53.7653 17.752 53.072 17.752C52.56 17.752 52.1387 17.8213 51.808 17.96C51.4773 18.0987 51.232 18.2853 51.072 18.52C50.9227 18.744 50.848 19 50.848 19.288C50.848 19.6187 50.96 19.9067 51.184 20.152C51.4187 20.3973 51.8507 20.5893 52.48 20.728L54.624 21.208C55.648 21.432 56.3733 21.7733 56.8 22.232C57.2267 22.6907 57.44 23.272 57.44 23.976C57.44 24.6267 57.264 25.192 56.912 25.672C56.56 26.152 56.0693 26.52 55.44 26.776C54.8213 27.032 54.0907 27.16 53.248 27.16C52.5013 27.16 51.8293 27.064 51.232 26.872C50.6347 26.68 50.112 26.4187 49.664 26.088C49.216 25.7573 48.848 25.3787 48.56 24.952L49.744 23.768C49.968 24.1413 50.2507 24.4773 50.592 24.776C50.9333 25.064 51.328 25.288 51.776 25.448C52.2347 25.608 52.7413 25.688 53.296 25.688C53.7867 25.688 54.208 25.6293 54.56 25.512C54.9227 25.3947 55.1947 25.224 55.376 25C55.568 24.7653 55.664 24.488 55.664 24.168C55.664 23.8587 55.5573 23.5867 55.344 23.352C55.1413 23.1173 54.7573 22.936 54.192 22.808L51.872 22.28C51.232 22.1413 50.704 21.944 50.288 21.688C49.872 21.432 49.5627 21.1227 49.36 20.76C49.1573 20.3867 49.056 19.9707 49.056 19.512C49.056 18.9147 49.216 18.376 49.536 17.896C49.8667 17.4053 50.3413 17.016 50.96 16.728C51.5787 16.4293 52.3147 16.28 53.168 16.28ZM60.3951 17.656C60.0218 17.656 59.7338 17.5653 59.5311 17.384C59.3391 17.192 59.2431 16.9253 59.2431 16.584C59.2431 16.2427 59.3391 15.9813 59.5311 15.8C59.7338 15.6187 60.0218 15.528 60.3951 15.528C60.7578 15.528 61.0351 15.6187 61.2271 15.8C61.4298 15.9813 61.5311 16.2427 61.5311 16.584C61.5311 16.9253 61.4298 17.192 61.2271 17.384C61.0351 17.5653 60.7578 17.656 60.3951 17.656ZM61.2431 19V27H59.5311V19H61.2431ZM67.2818 30.44C66.6631 30.44 66.0818 30.3547 65.5378 30.184C65.0044 30.0133 64.5564 29.736 64.1938 29.352C63.8311 28.968 63.5964 28.4667 63.4898 27.848L65.1698 27.496C65.2551 28.0293 65.4844 28.4347 65.8578 28.712C66.2311 29 66.7591 29.144 67.4418 29.144C68.1564 29.144 68.6951 28.9253 69.0578 28.488C69.4204 28.0507 69.6018 27.4747 69.6018 26.76V25.48C69.3671 25.896 69.0311 26.2427 68.5938 26.52C68.1564 26.7973 67.6391 26.936 67.0418 26.936C66.3484 26.936 65.7298 26.776 65.1858 26.456C64.6524 26.136 64.2311 25.6773 63.9218 25.08C63.6231 24.472 63.4738 23.7413 63.4738 22.888C63.4738 22.0453 63.6391 21.32 63.9698 20.712C64.3111 20.104 64.7538 19.64 65.2978 19.32C65.8418 19 66.4178 18.84 67.0258 18.84C67.6978 18.84 68.2631 18.984 68.7218 19.272C69.1804 19.5493 69.5164 19.9227 69.7298 20.392L69.8098 19H71.3298V26.36C71.3298 27.2987 71.1698 28.0667 70.8498 28.664C70.5404 29.272 70.0871 29.72 69.4898 30.008C68.8924 30.296 68.1564 30.44 67.2818 30.44ZM67.4098 25.544C68.0711 25.544 68.5991 25.32 68.9938 24.872C69.3991 24.4133 69.6018 23.752 69.6018 22.888C69.6018 22.024 69.4044 21.368 69.0098 20.92C68.6151 20.4613 68.0818 20.232 67.4098 20.232C66.9511 20.232 66.5564 20.344 66.2258 20.568C65.8951 20.792 65.6391 21.1067 65.4578 21.512C65.2871 21.9067 65.2018 22.3653 65.2018 22.888C65.2018 23.7307 65.3991 24.3867 65.7938 24.856C66.1884 25.3147 66.7271 25.544 67.4098 25.544ZM73.9843 27V19H75.5043L75.6163 21.08L75.3923 20.856C75.5416 20.3973 75.7549 20.0187 76.0323 19.72C76.3203 19.4107 76.6563 19.1867 77.0403 19.048C77.4349 18.9093 77.8509 18.84 78.2883 18.84C78.8536 18.84 79.3603 18.952 79.8083 19.176C80.2669 19.3893 80.6296 19.7147 80.8963 20.152C81.1629 20.5893 81.2963 21.144 81.2963 21.816V27H79.5843V22.344C79.5843 21.5547 79.4189 21.0107 79.0883 20.712C78.7683 20.4027 78.3629 20.248 77.8723 20.248C77.5203 20.248 77.1789 20.3333 76.8483 20.504C76.5176 20.664 76.2403 20.9253 76.0163 21.288C75.8029 21.6507 75.6963 22.136 75.6963 22.744V27H73.9843ZM89.5826 17.656C89.2093 17.656 88.9213 17.5653 88.7186 17.384C88.5266 17.192 88.4306 16.9253 88.4306 16.584C88.4306 16.2427 88.5266 15.9813 88.7186 15.8C88.9213 15.6187 89.2093 15.528 89.5826 15.528C89.9453 15.528 90.2226 15.6187 90.4146 15.8C90.6173 15.9813 90.7186 16.2427 90.7186 16.584C90.7186 16.9253 90.6173 17.192 90.4146 17.384C90.2226 17.5653 89.9453 17.656 89.5826 17.656ZM90.4306 19V27H88.7186V19H90.4306ZM93.1093 27V19H94.6293L94.7413 21.08L94.5173 20.856C94.6666 20.3973 94.8799 20.0187 95.1573 19.72C95.4453 19.4107 95.7813 19.1867 96.1653 19.048C96.5599 18.9093 96.9759 18.84 97.4133 18.84C97.9786 18.84 98.4853 18.952 98.9333 19.176C99.3919 19.3893 99.7546 19.7147 100.021 20.152C100.288 20.5893 100.421 21.144 100.421 21.816V27H98.7093V22.344C98.7093 21.5547 98.5439 21.0107 98.2133 20.712C97.8933 20.4027 97.4879 20.248 96.9973 20.248C96.6453 20.248 96.3039 20.3333 95.9733 20.504C95.6426 20.664 95.3653 20.9253 95.1413 21.288C94.9279 21.6507 94.8213 22.136 94.8213 22.744V27H93.1093ZM118.02 19H119.876L117.188 27H115.316L113.3 21.064L111.396 27H109.524L106.852 19H108.692L110.516 25.32L112.5 19H114.212L116.196 25.32L118.02 19ZM122.395 17.656C122.022 17.656 121.734 17.5653 121.531 17.384C121.339 17.192 121.243 16.9253 121.243 16.584C121.243 16.2427 121.339 15.9813 121.531 15.8C121.734 15.6187 122.022 15.528 122.395 15.528C122.758 15.528 123.035 15.6187 123.227 15.8C123.43 15.9813 123.531 16.2427 123.531 16.584C123.531 16.9253 123.43 17.192 123.227 17.384C123.035 17.5653 122.758 17.656 122.395 17.656ZM123.243 19V27H121.531V19H123.243ZM128.258 16.648V24.6C128.258 24.9947 128.359 25.2827 128.562 25.464C128.775 25.6453 129.058 25.736 129.41 25.736C129.698 25.736 129.948 25.6933 130.162 25.608C130.375 25.512 130.572 25.384 130.754 25.224L131.138 26.472C130.892 26.6853 130.588 26.856 130.226 26.984C129.874 27.1013 129.479 27.16 129.042 27.16C128.583 27.16 128.162 27.0853 127.778 26.936C127.394 26.7867 127.095 26.5467 126.882 26.216C126.668 25.8747 126.556 25.432 126.546 24.888V17.128L128.258 16.648ZM131.01 19V20.344H125.01V19H131.01ZM132.766 27V15.4H134.478V20.28C134.744 19.7787 135.102 19.416 135.549 19.192C136.008 18.9573 136.515 18.84 137.07 18.84C137.635 18.84 138.142 18.952 138.59 19.176C139.048 19.3893 139.411 19.7147 139.678 20.152C139.944 20.5893 140.078 21.144 140.078 21.816V27H138.366V22.36C138.366 21.5707 138.2 21.0213 137.87 20.712C137.55 20.4027 137.144 20.248 136.654 20.248C136.312 20.248 135.971 20.3333 135.63 20.504C135.299 20.664 135.022 20.9307 134.798 21.304C134.584 21.6667 134.478 22.1573 134.478 22.776V27H132.766ZM152.044 16.44C153.175 16.44 154.071 16.7227 154.732 17.288C155.404 17.8533 155.74 18.616 155.74 19.576C155.74 20.568 155.404 21.336 154.732 21.88C154.071 22.4133 153.175 22.68 152.044 22.68L151.884 22.776H149.436V27H147.74V16.44H152.044ZM151.916 21.352C152.609 21.352 153.121 21.2133 153.452 20.936C153.793 20.648 153.964 20.2107 153.964 19.624C153.964 19.048 153.793 18.616 153.452 18.328C153.121 18.04 152.609 17.896 151.916 17.896H149.436V21.352H151.916ZM152.924 21.704L156.364 27H154.396L151.452 22.376L152.924 21.704ZM161.503 18.84C162.282 18.84 162.97 19.0053 163.567 19.336C164.164 19.6667 164.628 20.1467 164.959 20.776C165.3 21.3947 165.471 22.136 165.471 23C165.471 23.864 165.3 24.6107 164.959 25.24C164.628 25.8587 164.164 26.3333 163.567 26.664C162.97 26.9947 162.282 27.16 161.503 27.16C160.724 27.16 160.036 26.9947 159.439 26.664C158.842 26.3333 158.372 25.8587 158.031 25.24C157.69 24.6107 157.519 23.864 157.519 23C157.519 22.136 157.69 21.3947 158.031 20.776C158.372 20.1467 158.842 19.6667 159.439 19.336C160.036 19.0053 160.724 18.84 161.503 18.84ZM161.503 20.184C161.023 20.184 160.612 20.296 160.271 20.52C159.94 20.7333 159.684 21.048 159.503 21.464C159.322 21.88 159.231 22.392 159.231 23C159.231 23.5973 159.322 24.1093 159.503 24.536C159.684 24.952 159.94 25.272 160.271 25.496C160.612 25.7093 161.023 25.816 161.503 25.816C161.983 25.816 162.388 25.7093 162.719 25.496C163.05 25.272 163.306 24.952 163.487 24.536C163.668 24.1093 163.759 23.5973 163.759 23C163.759 22.392 163.668 21.88 163.487 21.464C163.306 21.048 163.05 20.7333 162.719 20.52C162.388 20.296 161.983 20.184 161.503 20.184ZM167.625 27V19H169.145L169.257 21.08L169.033 20.856C169.182 20.3973 169.396 20.0187 169.673 19.72C169.961 19.4107 170.297 19.1867 170.681 19.048C171.076 18.9093 171.492 18.84 171.929 18.84C172.494 18.84 173.001 18.952 173.449 19.176C173.908 19.3893 174.27 19.7147 174.537 20.152C174.804 20.5893 174.937 21.144 174.937 21.816V27H173.225V22.344C173.225 21.5547 173.06 21.0107 172.729 20.712C172.409 20.4027 172.004 20.248 171.513 20.248C171.161 20.248 170.82 20.3333 170.489 20.504C170.158 20.664 169.881 20.9253 169.657 21.288C169.444 21.6507 169.337 22.136 169.337 22.744V27H167.625ZM178.395 17.656C178.022 17.656 177.734 17.5653 177.531 17.384C177.339 17.192 177.243 16.9253 177.243 16.584C177.243 16.2427 177.339 15.9813 177.531 15.8C177.734 15.6187 178.022 15.528 178.395 15.528C178.758 15.528 179.035 15.6187 179.227 15.8C179.43 15.9813 179.531 16.2427 179.531 16.584C179.531 16.9253 179.43 17.192 179.227 17.384C179.035 17.5653 178.758 17.656 178.395 17.656ZM179.243 19V27H177.531V19H179.243ZM181.922 27V19H183.442L183.554 21.08L183.33 20.856C183.479 20.3973 183.692 20.0187 183.97 19.72C184.258 19.4107 184.594 19.1867 184.978 19.048C185.372 18.9093 185.788 18.84 186.226 18.84C186.791 18.84 187.298 18.952 187.746 19.176C188.204 19.3893 188.567 19.7147 188.834 20.152C189.1 20.5893 189.234 21.144 189.234 21.816V27H187.522V22.344C187.522 21.5547 187.356 21.0107 187.026 20.712C186.706 20.4027 186.3 20.248 185.81 20.248C185.458 20.248 185.116 20.3333 184.786 20.504C184.455 20.664 184.178 20.9253 183.954 21.288C183.74 21.6507 183.634 22.136 183.634 22.744V27H181.922Z" fill="#1C1F26"/>
</g>
<defs>
<clipPath id="clip0_22605_2584">
<rect width="207" height="44" fill="white"/>
</clipPath>
<clipPath id="clip1_22605_2584">
<rect width="10" height="14" fill="white" transform="translate(23 15)"/>
</clipPath>
</defs>
</svg>
